Coordinates
version=1
nRows=11
nColumns=63
inDegrees=yes

Units are S.I. units (second, meters, Newtons, ...)
If the header above contains a line with 'inDegrees', this indicates whether rotational values are in degrees (yes) or radians (no).

endheader
time	pelvis_tilt	pelvis_list	pelvis_rotation	pelvis_tx	pelvis_ty	pelvis_tz	hip_flexion_r	hip_adduction_r	hip_rotation_r	knee_angle_r	knee_angle_r_beta	ankle_angle_r	subtalar_angle_r	mtp_angle_r	hip_flexion_l	hip_adduction_l	hip_rotation_l	knee_angle_l	knee_angle_l_beta	ankle_angle_l	subtalar_angle_l	mtp_angle_l	L5_S1_Flex_Ext	L5_S1_Lat_Bending	L5_S1_axial_rotation	L4_L5_Flex_Ext	L4_L5_Lat_Bending	L4_L5_axial_rotation	L3_L4_Flex_Ext	L3_L4_Lat_Bending	L3_L4_axial_rotation	L2_L3_Flex_Ext	L2_L3_Lat_Bending	L2_L3_axial_rotation	L1_L2_Flex_Ext	L1_L2_Lat_Bending	L1_L2_axial_rotation	L1_T12_Flex_Ext	L1_T12_Lat_Bending	L1_T12_axial_rotation	Abs_r3	Abs_r2	Abs_r1	Abs_t1	Abs_t2	neck_flexion	neck_bending	neck_rotation	arm_flex_r	arm_add_r	arm_rot_r	elbow_flex_r	pro_sup_r	wrist_flex_r	wrist_dev_r	arm_flex_l	arm_add_l	arm_rot_l	elbow_flex_l	pro_sup_l	wrist_flex_l	wrist_dev_l
      0.00000000	      5.76055321	     -4.78720702	     97.93858591	      0.14250807	      0.66555525	      0.74479916	      5.79374546	      4.37391005	     -2.12733606	      8.58359496	      0.14981199	     30.80540846	     -6.97618078	      0.00000000	     10.51433907	     -4.54168598	     -5.21183966	     13.35813217	      0.23314339	     40.88742636	     15.44559175	      0.00000000	      0.25764108	      0.44215156	     -1.13508590	      0.47846526	      0.58806157	     -1.20602877	      0.42327854	      1.07504729	     -1.20602877	      0.29445799	      1.07504729	     -0.99320016	      0.23924551	      0.90163545	     -0.92225729	      0.14721611	      0.68489276	     -0.85131442	      1.84030449	      5.00170683	     -6.31300725	      0.00000000	      0.00000000	     28.01421324	      1.94093370	      2.88389333	     17.70132287	     -3.63322094	     93.56129441	     26.67443986	     11.52569077	     -1.64146091	     -3.64431154	     17.10916685	     -0.65118313	     86.87957517	     26.28353730	     48.82484591	     -6.29860551	    -10.31042479
      0.01694915	      5.25328747	     -4.77406787	     97.43384914	      0.14409444	      0.66643961	      0.74433875	      5.78050731	      4.01846919	     -0.52284152	      8.76893725	      0.15304683	     29.66897554	     -8.40784581	      0.00000000	     10.28907547	     -4.23365376	     -6.57845648	     13.38719591	      0.23365065	     41.01993271	     16.41448318	      0.00000000	      0.21790226	      0.36103496	     -1.00731069	      0.40466629	      0.48017650	     -1.07026760	      0.35799163	      0.87782040	     -1.07026760	      0.24904050	      0.87782040	     -0.88139685	      0.20234404	      0.73622249	     -0.81843993	      0.12450935	      0.55924315	     -0.75548301	      1.55645408	      4.08409966	     -5.60235984	      0.00000000	      0.00000000	     27.86841053	      1.29589370	      2.11735276	     17.66504696	     -3.06429507	     94.96857157	     26.18270789	      7.77675592	     -1.24779727	     -2.76732057	     16.26990103	     -1.09908584	     82.92960789	     26.62996715	     53.75641455	     -6.15374909	     -8.27903186
      0.03389831	      4.82674059	     -4.74050859	     96.91159879	      0.14535422	      0.66686152	      0.74376675	      5.82253826	      3.64806730	      0.21473052	      9.11992015	      0.15917263	     29.36587982	     -8.49856972	      0.00000000	      9.97523189	     -3.92096085	     -7.37568192	     13.27655545	      0.23171961	     40.97348673	     16.45612784	      0.00000000	      0.18716460	      0.30272845	     -0.89936489	      0.34758338	      0.40262884	     -0.95557520	      0.30749272	      0.73605396	     -0.95557520	      0.21391042	      0.73605396	     -0.78694428	      0.17380105	      0.61732386	     -0.73073398	      0.10694585	      0.46892638	     -0.67452367	      1.33689803	      3.42452482	     -5.00199773	      0.00000000	      0.00000000	     27.76814929	      0.61933533	      1.73854461	     17.46509297	     -2.66859339	     94.86529489	     25.76739231	      7.38791176	     -1.19295760	     -2.40088250	     15.58931027	     -1.45568677	     79.85986939	     26.96750734	     57.61249879	     -5.89840794	     -6.75494942
      0.05084746	      4.57345337	     -4.73684553	     96.56941837	      0.14613927	      0.66684697	      0.74344778	      6.07049849	      3.29028760	     -0.86886739	      9.75512865	      0.17025911	     30.03811390	     -6.37184302	      0.00000000	      9.84548844	     -3.76497481	     -8.02983064	     13.39018622	      0.23370284	     40.94095451	     16.41610240	      0.00000000	      0.16822845	      0.26773550	     -0.79710436	      0.31241706	      0.35608821	     -0.84692338	      0.27638253	      0.65097209	     -0.84692338	      0.19226830	      0.65097209	     -0.69746631	      0.15621694	      0.54596623	     -0.64764729	      0.09612574	      0.41472229	     -0.59782827	      1.20163903	      3.02867752	     -4.43325530	      0.00000000	      0.00000000	     27.73169811	      0.20099449	      1.35635519	     17.08080858	     -2.47951944	     93.19577811	     25.53733698	      7.78734715	     -1.23483466	     -2.10828789	     15.49780315	     -1.40973579	     79.68755792	     26.74187917	     58.12635324	     -5.87264177	     -6.27206005
      0.06779661	      4.47648879	     -4.71639753	     96.19862230	      0.14709902	      0.66661299	      0.74292871	      6.11472695	      3.35051608	      0.87677376	      9.94495129	      0.17357214	     29.84210005	     -8.19174332	      0.00000000	      9.69136551	     -3.81515469	     -8.90005265	     13.49175327	      0.23547552	     40.97074883	     16.53898995	      0.00000000	      0.15721135	      0.25592368	     -0.74537585	      0.29195721	      0.34037849	     -0.79196184	      0.25828253	      0.62225283	     -0.79196184	      0.17967686	      0.62225283	     -0.65220386	      0.14598646	      0.52187956	     -0.60561787	      0.08983057	      0.39642578	     -0.55903188	      1.12294498	      2.89505983	     -4.14555684	      0.00000000	      0.00000000	     27.73540253	      0.11025257	      1.67661151	     17.30100925	     -2.06210793	     94.26949387	     24.96015295	      7.76708266	     -1.10142597	     -2.98291502	     15.07681880	     -1.41968087	     78.21584045	     26.64903184	     59.57821244	     -5.81523774	     -5.65508467
      0.08474576	      4.41778141	     -4.69684830	     95.92525931	      0.14766418	      0.66616946	      0.74272515	      6.37047907	      3.21227880	      0.11154280	     10.55261850	      0.18417794	     30.78606978	     -6.65199458	      0.00000000	      9.62384412	     -3.86062493	     -9.48744260	     13.67866587	      0.23873776	     41.00080394	     16.47009695	      0.00000000	      0.14614898	      0.25072263	     -0.68052625	      0.27141327	      0.33346110	     -0.72305914	      0.24010816	      0.60960701	     -0.72305914	      0.16703367	      0.60960701	     -0.59546047	      0.13571394	      0.51127359	     -0.55292758	      0.08350953	      0.38836936	     -0.51039469	      1.04392754	      2.83622456	     -3.78488283	      0.00000000	      0.00000000	     27.79298249	      0.11307655	      1.80239113	     17.03485109	     -1.95673400	     92.23004270	     24.82182191	      9.29898297	     -1.24321871	     -3.15883789	     15.11557665	     -1.21476992	     78.50753109	     26.23305175	     59.58247224	     -5.79676994	     -5.51732509
      0.10169492	      4.32857021	     -4.72029272	     95.68655308	      0.14806887	      0.66569634	      0.74225756	      6.57440131	      3.09329223	      0.06254811	     10.99341611	      0.19187131	     31.51096931	     -6.17824851	      0.00000000	      9.49900894	     -3.80241765	     -9.78324259	     13.59522142	      0.23728138	     41.01643503	     16.34907105	      0.00000000	      0.15246726	      0.24300081	     -0.64793414	      0.28314694	      0.32319107	     -0.68843002	      0.25048845	      0.59083216	     -0.68843002	      0.17425483	      0.59083216	     -0.56694237	      0.14158109	      0.49552725	     -0.52644649	      0.08711979	      0.37640825	     -0.48595061	      1.08905836	      2.74887374	     -3.60361531	      0.00000000	      0.00000000	     27.83982034	      0.23481265	      2.07273401	     17.00444516	     -1.77713373	     91.77217573	     24.58939056	     10.47235455	     -1.34938132	     -3.96439391	     14.97557340	     -1.07787390	     78.67572990	     25.89147866	     58.72449631	     -5.88359785	     -5.65227520
      0.11864407	      4.19392267	     -4.74033355	     95.19995781	      0.14879094	      0.66526529	      0.74223928	      7.01123132	      2.84499653	     -0.80070697	     11.86335899	      0.20705467	     32.66783547	     -4.30872674	      0.00000000	      9.39940124	     -3.76134637	    -10.49020802	     13.55692361	      0.23661295	     41.14937595	     16.69809781	      0.00000000	      0.15192746	      0.22860228	     -0.57557848	      0.28214448	      0.30404104	     -0.61155214	      0.24960162	      0.55582360	     -0.61155214	      0.17363789	      0.55582360	     -0.50363117	      0.14107984	      0.46616578	     -0.46765752	      0.08681135	      0.35410494	     -0.43168386	      1.08520263	      2.58599477	     -3.20119485	      0.00000000	      0.00000000	     27.89299385	      0.57436740	      2.23628965	     17.27594030	     -1.54617252	     92.47335727	     24.40388550	      9.62462350	     -1.30567892	     -4.65104746	     15.11237520	     -0.94326667	     79.72000657	     25.48309357	     57.06143752	     -6.01660137	     -5.73963372
      0.13559322	      4.04668419	     -4.68416727	     95.18296547	      0.14845986	      0.66497414	      0.74188078	      7.09960894	      2.52207699	     -1.94589737	     12.27323503	      0.21420836	     33.57133342	     -2.59284338	      0.00000000	      9.09525605	     -3.33306463	     -8.52652769	     13.00230744	      0.22693308	     40.86912214	     14.69148679	      0.00000000	      0.14484470	      0.21647403	     -0.59364201	      0.26899110	      0.28791046	     -0.63074463	      0.23796536	      0.52633496	     -0.63074463	      0.16554301	      0.52633496	     -0.51943676	      0.13450279	      0.44143384	     -0.48233413	      0.08276426	      0.33531827	     -0.44523151	      1.03461123	      2.44879752	     -3.30165876	      0.00000000	      0.00000000	     27.93424133	      1.02409588	      2.47390225	     16.93209879	     -1.67258322	     89.62927264	     24.48450278	     16.22649207	     -2.07641744	     -4.78305635	     15.03041712	     -0.82775808	     79.47037506	     25.22710009	     57.87296886	     -6.30122175	     -5.51730407
      0.15254237	      4.06320636	     -4.74898036	     95.05876641	      0.14910252	      0.66469807	      0.74212920	      7.38074200	      2.64394608	     -0.98355297	     12.64456026	      0.22068921	     33.67090584	     -3.79489706	      0.00000000	      9.30432009	     -3.55452760	     -9.89035032	     13.29033883	      0.23196017	     41.37183422	     16.64449409	      0.00000000	      0.14943804	      0.20802972	     -0.59852680	      0.27752138	      0.27667953	     -0.63593472	      0.24551175	      0.50580346	     -0.63593472	      0.17079273	      0.50580346	     -0.52371095	      0.13876816	      0.42421420	     -0.48630302	      0.08538889	      0.32223804	     -0.44889510	      1.06742096	      2.35327380	     -3.32882649	      0.00000000	      0.00000000	     27.90404946	      1.57887957	      2.18119126	     17.48178390	     -1.40429584	     92.05561700	     24.52891344	     10.25304978	     -1.36999767	     -4.83758337	     15.30113701	     -0.81011736	     79.76695038	     24.98336749	     59.70683378	     -6.77762770	     -4.82752120
      0.16949153	      3.89694060	     -4.73633360	     94.90849669	      0.14916195	      0.66468166	      0.74234775	      7.63344329	      2.30720158	     -2.13163748	     13.21432394	      0.23063346	     34.37908294	     -2.04796533	      0.00000000	      9.16824000	     -3.30540705	     -9.47057827	     12.96816978	      0.22633726	     41.37384014	     16.53010458	      0.00000000	      0.13400433	      0.18922230	     -0.60030558	      0.24885944	      0.25166565	     -0.63782468	      0.22015571	      0.46007509	     -0.63782468	      0.15315355	      0.46007509	     -0.52526738	      0.12443642	      0.38586211	     -0.48774828	      0.07657007	      0.29310534	     -0.45022919	      0.95717951	      2.14052046	     -3.33871955	      0.00000000	      0.00000000	     27.85998724	      2.11201581	      2.22879905	     17.63979932	     -1.33309904	     92.09012169	     24.57256303	     10.38154715	     -1.37117038	     -4.63084490	     15.70448154	     -0.77272448	     79.96045421	     24.79406382	     62.63504171	     -7.44210444	     -4.22745059
